<?xml version="1.0" encoding="UTF-8" standalone="no"?>
<!DOCTYPE svg PUBLIC "-//W3C//DTD SVG 1.1//EN"
 "http://www.w3.org/Graphics/SVG/1.1/DTD/svg11.dtd">
<!-- Generated by graphviz version 2.38.0 (20140413.2041)
 -->
<!-- Title: G Pages: 1 -->
<svg width="347pt" height="118pt"
 viewBox="0.00 0.00 347.00 118.00" xmlns="http://www.w3.org/2000/svg" xmlns:xlink="http://www.w3.org/1999/xlink">
<g id="graph0" class="graph" transform="scale(1 1) rotate(0) translate(4 114)">
<title>G</title>
<polygon fill="white" stroke="none" points="-4,4 -4,-114 343,-114 343,4 -4,4"/>
<!-- IDLE -->
<g id="node1" class="node"><title>IDLE</title>
<path fill="#c7e9c0" stroke="#41ab5d" stroke-width="2" d="M12,-0.5C12,-0.5 42,-0.5 42,-0.5 48,-0.5 54,-6.5 54,-12.5 54,-12.5 54,-24.5 54,-24.5 54,-30.5 48,-36.5 42,-36.5 42,-36.5 12,-36.5 12,-36.5 6,-36.5 0,-30.5 0,-24.5 0,-24.5 0,-12.5 0,-12.5 0,-6.5 6,-0.5 12,-0.5"/>
<text text-anchor="start" x="13.5" y="-15.4" font-family="Helvetica,sans-Serif" font-size="12.00" fill="#005a32">IDLE</text>
</g>
<!-- COUNTING -->
<g id="node2" class="node"><title>COUNTING</title>
<path fill="#edf8e9" stroke="#41ab5d" d="M136,-35.5C136,-35.5 189,-35.5 189,-35.5 195,-35.5 201,-41.5 201,-47.5 201,-47.5 201,-59.5 201,-59.5 201,-65.5 195,-71.5 189,-71.5 189,-71.5 136,-71.5 136,-71.5 130,-71.5 124,-65.5 124,-59.5 124,-59.5 124,-47.5 124,-47.5 124,-41.5 130,-35.5 136,-35.5"/>
<text text-anchor="start" x="132" y="-50.4" font-family="Helvetica,sans-Serif" font-size="12.00" fill="#005a32">COUNTING</text>
</g>
<!-- IDLE&#45;&gt;COUNTING -->
<g id="edge1" class="edge"><title>IDLE&#45;&gt;COUNTING</title>
<path fill="none" stroke="#41ab5d" d="M54.0571,-25.3314C72.4623,-30.1568 97.5423,-36.7321 118.842,-42.3163"/>
<polygon fill="#41ab5d" stroke="#41ab5d" points="123.887,-43.6388 118.479,-44.5472 121.468,-43.0048 119.05,-42.3707 119.05,-42.3707 119.05,-42.3707 121.468,-43.0048 119.621,-40.1943 123.887,-43.6388 123.887,-43.6388"/>
<text text-anchor="start" x="72" y="-50.5" font-family="Helvetica,sans-Serif" font-size="10.00" fill="#005a32">ev_start</text>
<text text-anchor="start" x="76.5" y="-40.5" font-family="Helvetica,sans-Serif" font-style="italic" font-size="10.00" fill="#005a32">count</text>
</g>
<!-- COUNTING&#45;&gt;COUNTING -->
<g id="edge2" class="edge"><title>COUNTING&#45;&gt;COUNTING</title>
<path fill="none" stroke="#41ab5d" d="M149.557,-71.5287C147.358,-81.1943 151.672,-90 162.5,-90 171.298,-90 175.796,-84.1869 175.993,-76.8225"/>
<polygon fill="#41ab5d" stroke="#41ab5d" points="175.443,-71.5287 178.198,-76.2693 175.701,-74.0153 175.96,-76.5019 175.96,-76.5019 175.96,-76.5019 175.701,-74.0153 173.722,-76.7345 175.443,-71.5287 175.443,-71.5287"/>
<text text-anchor="start" x="139.5" y="-103" font-family="Helvetica,sans-Serif" font-size="10.00" fill="#005a32">ev_running</text>
<text text-anchor="start" x="150" y="-93" font-family="Helvetica,sans-Serif" font-style="italic" font-size="10.00" fill="#005a32">count</text>
</g>
<!-- DONE -->
<g id="node3" class="node"><title>DONE</title>
<path fill="#edf8e9" stroke="#41ab5d" d="M297,-0.5C297,-0.5 327,-0.5 327,-0.5 333,-0.5 339,-6.5 339,-12.5 339,-12.5 339,-24.5 339,-24.5 339,-30.5 333,-36.5 327,-36.5 327,-36.5 297,-36.5 297,-36.5 291,-36.5 285,-30.5 285,-24.5 285,-24.5 285,-12.5 285,-12.5 285,-6.5 291,-0.5 297,-0.5"/>
<text text-anchor="start" x="294.5" y="-15.4" font-family="Helvetica,sans-Serif" font-size="12.00" fill="#005a32">DONE</text>
</g>
<!-- COUNTING&#45;&gt;DONE -->
<g id="edge3" class="edge"><title>COUNTING&#45;&gt;DONE</title>
<path fill="none" stroke="#41ab5d" d="M201.102,-44.5775C225.384,-38.8158 256.611,-31.406 279.568,-25.9584"/>
<polygon fill="#41ab5d" stroke="#41ab5d" points="284.629,-24.7576 280.283,-28.1013 282.196,-25.3348 279.764,-25.9121 279.764,-25.9121 279.764,-25.9121 282.196,-25.3348 279.244,-23.7229 284.629,-24.7576 284.629,-24.7576"/>
<text text-anchor="start" x="219" y="-42.5" font-family="Helvetica,sans-Serif" font-size="10.00" fill="#005a32">ev_finished</text>
</g>
<!-- DONE&#45;&gt;IDLE -->
<g id="edge4" class="edge"><title>DONE&#45;&gt;IDLE</title>
<path fill="none" stroke="#41ab5d" d="M284.851,-14.5314C262.612,-11.3674 229.795,-7.19564 201,-5.5 166.837,-3.48827 158.145,-3.19862 124,-5.5 102.373,-6.95771 78.1895,-10.2426 59.5058,-13.1455"/>
<polygon fill="#41ab5d" stroke="#41ab5d" points="54.3886,-13.9523 58.9771,-10.951 56.8581,-13.5629 59.3276,-13.1735 59.3276,-13.1735 59.3276,-13.1735 56.8581,-13.5629 59.678,-15.3961 54.3886,-13.9523 54.3886,-13.9523"/>
<text text-anchor="start" x="145.5" y="-18.5" font-family="Helvetica,sans-Serif" font-size="10.00" fill="#005a32">ev_stop</text>
<text text-anchor="start" x="151.5" y="-8.5" font-family="Helvetica,sans-Serif" font-style="italic" font-size="10.00" fill="#005a32">reset</text>
</g>
</g>
</svg>
