<?xml version="1.0" encoding="UTF-8" standalone="no"?>
<!DOCTYPE svg PUBLIC "-//W3C//DTD SVG 1.1//EN"
 "http://www.w3.org/Graphics/SVG/1.1/DTD/svg11.dtd">
<!-- Generated by graphviz version 2.38.0 (20140413.2041)
 -->
<!-- Title: G Pages: 1 -->
<svg width="336pt" height="73pt"
 viewBox="0.00 0.00 336.00 73.00" xmlns="http://www.w3.org/2000/svg" xmlns:xlink="http://www.w3.org/1999/xlink">
<g id="graph0" class="graph" transform="scale(1 1) rotate(0) translate(4 69)">
<title>G</title>
<polygon fill="white" stroke="none" points="-4,4 -4,-69 332,-69 332,4 -4,4"/>
<!-- IDLE -->
<g id="node1" class="node"><title>IDLE</title>
<path fill="#c7e9c0" stroke="#41ab5d" stroke-width="2" d="M12,-0.5C12,-0.5 42,-0.5 42,-0.5 48,-0.5 54,-6.5 54,-12.5 54,-12.5 54,-24.5 54,-24.5 54,-30.5 48,-36.5 42,-36.5 42,-36.5 12,-36.5 12,-36.5 6,-36.5 0,-30.5 0,-24.5 0,-24.5 0,-12.5 0,-12.5 0,-6.5 6,-0.5 12,-0.5"/>
<text text-anchor="start" x="13.5" y="-15.4" font-family="Helvetica,sans-Serif" font-size="12.00" fill="#005a32">IDLE</text>
</g>
<!-- COUNT -->
<g id="node2" class="node"><title>COUNT</title>
<path fill="#edf8e9" stroke="#41ab5d" d="M119,-28.5C119,-28.5 153,-28.5 153,-28.5 159,-28.5 165,-34.5 165,-40.5 165,-40.5 165,-52.5 165,-52.5 165,-58.5 159,-64.5 153,-64.5 153,-64.5 119,-64.5 119,-64.5 113,-64.5 107,-58.5 107,-52.5 107,-52.5 107,-40.5 107,-40.5 107,-34.5 113,-28.5 119,-28.5"/>
<text text-anchor="start" x="115" y="-43.4" font-family="Helvetica,sans-Serif" font-size="12.00" fill="#005a32">COUNT</text>
</g>
<!-- IDLE&#45;&gt;COUNT -->
<g id="edge1" class="edge"><title>IDLE&#45;&gt;COUNT</title>
<path fill="none" stroke="#41ab5d" d="M54.1751,-25.3496C68.5163,-29.1024 86.4383,-33.7923 101.759,-37.8015"/>
<polygon fill="#41ab5d" stroke="#41ab5d" points="106.847,-39.1327 101.44,-40.0436 104.428,-38.4998 102.009,-37.8669 102.009,-37.8669 102.009,-37.8669 104.428,-38.4998 102.579,-35.6902 106.847,-39.1327 106.847,-39.1327"/>
<text text-anchor="start" x="72" y="-36.5" font-family="Helvetica,sans-Serif" font-size="10.00" fill="#005a32">true</text>
</g>
<!-- DONE -->
<g id="node3" class="node"><title>DONE</title>
<path fill="#edf8e9" stroke="#41ab5d" d="M286,-0.5C286,-0.5 316,-0.5 316,-0.5 322,-0.5 328,-6.5 328,-12.5 328,-12.5 328,-24.5 328,-24.5 328,-30.5 322,-36.5 316,-36.5 316,-36.5 286,-36.5 286,-36.5 280,-36.5 274,-30.5 274,-24.5 274,-24.5 274,-12.5 274,-12.5 274,-6.5 280,-0.5 286,-0.5"/>
<text text-anchor="start" x="283.5" y="-15.4" font-family="Helvetica,sans-Serif" font-size="12.00" fill="#005a32">DONE</text>
</g>
<!-- COUNT&#45;&gt;DONE -->
<g id="edge2" class="edge"><title>COUNT&#45;&gt;DONE</title>
<path fill="none" stroke="#41ab5d" d="M165.021,-41.6866C193.932,-36.7203 238.919,-28.9924 268.91,-23.8407"/>
<polygon fill="#41ab5d" stroke="#41ab5d" points="273.958,-22.9735 269.411,-26.0376 271.494,-23.3967 269.03,-23.82 269.03,-23.82 269.03,-23.82 271.494,-23.3967 268.649,-21.6025 273.958,-22.9735 273.958,-22.9735"/>
<text text-anchor="start" x="183" y="-40.5" font-family="Helvetica,sans-Serif" font-size="10.00" fill="#005a32">ev_counter_done</text>
</g>
<!-- DONE&#45;&gt;IDLE -->
<g id="edge3" class="edge"><title>DONE&#45;&gt;IDLE</title>
<path fill="none" stroke="#41ab5d" d="M273.765,-14.9087C236.624,-10.3018 166.596,-3.37081 107,-7.5 91.2515,-8.59115 73.8631,-10.8918 59.4182,-13.1084"/>
<polygon fill="#41ab5d" stroke="#41ab5d" points="54.2381,-13.9189 58.8302,-10.923 56.7081,-13.5324 59.178,-13.1459 59.178,-13.1459 59.178,-13.1459 56.7081,-13.5324 59.5258,-15.3689 54.2381,-13.9189 54.2381,-13.9189"/>
<text text-anchor="start" x="127.5" y="-10.5" font-family="Helvetica,sans-Serif" font-size="10.00" fill="#005a32">true</text>
</g>
</g>
</svg>
